<svg xmlns="http://www.w3.org/2000/svg" viewBox="0 0 32 32" id="power-bi"><path d="M28 12.378v10.386a2.982 2.982 0 0 1-1.423 2.552 2.988 2.988 0 0 1-2.919.132l-1.105-.553a1 1 0 0 1 .895-1.789l1.105.553c.451.226.83.044.973-.043a.993.993 0 0 0 .474-.852V12.378c0-.412-.259-.788-.644-.935l-17-6.476a.987.987 0 0 0-.923.112.987.987 0 0 0-.433.823V15a1 1 0 0 1-2 0V5.902a3 3 0 0 1 4.068-2.803l17 6.476A3.016 3.016 0 0 1 28 12.378zM18 11.5a1.5 1.5 0 0 0-1.5 1.5v15a1.5 1.5 0 1 0 3 0V13a1.5 1.5 0 0 0-1.5-1.5zm-4 2a1.5 1.5 0 0 0-1.5 1.5v11a1.5 1.5 0 1 0 3 0V15a1.5 1.5 0 0 0-1.5-1.5zm-4 2A1.5 1.5 0 0 0 8.5 17v7a1.5 1.5 0 1 0 3 0v-7a1.5 1.5 0 0 0-1.5-1.5zm-4 2A1.5 1.5 0 0 0 4.5 19v3a1.5 1.5 0 1 0 3 0v-3A1.5 1.5 0 0 0 6 17.5z"></path></svg>